<svg xmlns="http://www.w3.org/2000/svg" viewBox="0 0 1000 700" width="100%" height="100%">
  <!-- Outer White Container -->
  <rect width="1000" height="700" fill="#FFFFFF"/>

  <!-- Left Deep Blue Circuit PCB Pattern Sidebar -->
  <rect x="0" y="0" width="220" height="700" fill="#0F172A"/>
  
  <!-- Circuit lines in sidebar -->
  <g stroke="#3B82F6" stroke-width="1.5" opacity="0.4" fill="none">
    <path d="M 20 50 L 20 200 L 50 230 L 50 400 L 20 430 L 20 650"/>
    <circle cx="20" cy="50" r="3" fill="#3B82F6"/>
    <circle cx="20" cy="650" r="3" fill="#3B82F6"/>
    <path d="M 200 80 L 170 110 L 170 300 L 200 330 L 200 600"/>
    <circle cx="200" cy="80" r="3" fill="#3B82F6"/>
    <path d="M 80 0 L 80 150 L 110 180 L 110 500 L 80 530 L 80 700"/>
  </g>

  <!-- Giant Vertical Text: CERTIFICATE OF ACHIEVEMENT -->
  <g transform="translate(130, 480) rotate(-90)">
    <text x="0" y="0" font-family="system-ui, sans-serif" font-weight="900" font-size="44" fill="#FFFFFF" letter-spacing="4">CERTIFICATE</text>
    <text x="0" y="42" font-family="system-ui, sans-serif" font-weight="800" font-size="28" fill="#93C5FD" letter-spacing="4">OF ACHIEVEMENT</text>
  </g>

  <!-- Top Institutional & Partner Logos -->
  <g transform="translate(250, 30)">
    <!-- Hackathon 4.0 Logo Tag -->
    <rect x="0" y="5" width="55" height="38" rx="4" fill="#7E22CE"/>
    <text x="27" y="24" font-family="system-ui, sans-serif" font-weight="900" font-size="9" fill="#FFFFFF" text-anchor="middle">HACKATHON</text>
    <text x="27" y="36" font-family="system-ui, sans-serif" font-weight="900" font-size="12" fill="#FFFFFF" text-anchor="middle">4.0</text>

    <!-- Divider -->
    <line x1="70" y1="5" x2="70" y2="45" stroke="#94A3B8" stroke-width="2"/>

    <!-- GIT Global Institute of Technology Logo -->
    <circle cx="95" cy="25" r="16" fill="#0284C7"/>
    <text x="95" y="29" font-family="system-ui, sans-serif" font-weight="900" font-size="10" fill="#FFFFFF" text-anchor="middle">GIT</text>
    <text x="120" y="22" font-family="system-ui, sans-serif" font-weight="900" font-size="16" fill="#0F172A">GLOBAL</text>
    <text x="120" y="36" font-family="system-ui, sans-serif" font-weight="600" font-size="8.5" fill="#475569">INSTITUTE OF TECHNOLOGY, JAIPUR</text>

    <!-- Partner Badges -->
    <g transform="translate(340, 5)">
      <!-- Google Developer Group -->
      <circle cx="15" cy="18" r="10" fill="#EA4335" opacity="0.9"/>
      <circle cx="22" cy="18" r="7" fill="#4285F4"/>
      <text x="18" y="38" font-family="system-ui, sans-serif" font-size="7" fill="#64748B" text-anchor="middle">GDG</text>

      <!-- NAAC / AICTE seals -->
      <circle cx="55" cy="18" r="12" fill="#DC2626"/>
      <text x="55" y="22" font-family="system-ui, sans-serif" font-weight="900" font-size="7" fill="#FFFFFF" text-anchor="middle">NAAC</text>

      <circle cx="90" cy="18" r="12" fill="#2563EB"/>
      <text x="90" y="22" font-family="system-ui, sans-serif" font-weight="900" font-size="7" fill="#FFFFFF" text-anchor="middle">IIC</text>
    </g>

    <!-- Powered By H2S -->
    <g transform="translate(500, 10)">
      <text x="0" y="14" font-family="system-ui, sans-serif" font-weight="700" font-size="8" fill="#64748B">POWERED BY</text>
      <text x="0" y="30" font-family="system-ui, sans-serif" font-weight="900" font-size="14" fill="#0284C7">H2S</text>
    </g>
  </g>

  <!-- Big Central Headline -->
  <g transform="translate(250, 140)">
    <text x="250" y="40" font-family="system-ui, sans-serif" font-weight="900" font-size="44" fill="#6B21A8" text-anchor="middle" letter-spacing="2">CODEFIESTA</text>
    
    <!-- Sub words -->
    <text x="250" y="70" font-family="system-ui, sans-serif" font-weight="800" font-size="13" fill="#6B21A8" text-anchor="middle" letter-spacing="6">IDEAS   LEARN   TECH   HACK   WIN</text>

    <!-- Giant HACKATHON 4.0 -->
    <text x="250" y="160" font-family="system-ui, sans-serif" font-weight="900" font-size="78" fill="#7E22CE" text-anchor="middle" letter-spacing="3">HACKATHON 4.0</text>
    
    <!-- Year 2025 vertical -->
    <g transform="translate(580, 75)" font-family="system-ui, sans-serif" font-weight="900" font-size="14" fill="#6B21A8">
      <text x="0" y="0">2</text>
      <text x="0" y="15">0</text>
      <text x="0" y="30">2</text>
      <text x="0" y="45">5</text>
    </g>
  </g>

  <!-- Award text -->
  <text x="500" y="360" font-family="system-ui, sans-serif" font-size="17" fill="#1F2937" text-anchor="middle">This certificate is proudly presented to</text>

  <!-- Recipient Name: Dipesh -->
  <text x="500" y="420" font-family="system-ui, sans-serif" font-weight="900" font-size="46" fill="#7E22CE" text-anchor="middle">Dipesh</text>

  <!-- Event description -->
  <text x="500" y="465" font-family="system-ui, sans-serif" font-size="15" fill="#1F2937" text-anchor="middle">
    for participating in <tspan font-weight="bold">CODEFIESTA 4.0 (24 Hr. Hackathon)</tspan> organized by
  </text>
  <text x="500" y="495" font-family="system-ui, sans-serif" font-size="15" fill="#1F2937" text-anchor="middle">
    <tspan font-weight="bold">Global Institute of Technology, Jaipur</tspan> held on 09th–10th Oct 2025.
  </text>

  <!-- Bottom Signatures -->
  <g transform="translate(320, 560)">
    <path d="M 10 30 Q 35 10, 55 35 T 90 20 Q 110 10, 130 25" fill="none" stroke="#1F2937" stroke-width="2"/>
    <line x1="0" y1="45" x2="160" y2="45" stroke="#94A3B8" stroke-width="1.5"/>
    <text x="0" y="68" font-family="system-ui, sans-serif" font-weight="800" font-size="14" fill="#0F172A">Dr. Pradeep Jha</text>
    <text x="0" y="86" font-family="system-ui, sans-serif" font-size="12" fill="#475569">Convener</text>
  </g>

  <g transform="translate(640, 560)">
    <path d="M 20 35 Q 35 10, 50 35 T 80 15 Q 95 10, 110 28" fill="none" stroke="#1F2937" stroke-width="2"/>
    <line x1="0" y1="45" x2="160" y2="45" stroke="#94A3B8" stroke-width="1.5"/>
    <text x="0" y="68" font-family="system-ui, sans-serif" font-weight="800" font-size="14" fill="#0F172A">Dr. I. C. Sharma</text>
    <text x="0" y="86" font-family="system-ui, sans-serif" font-size="12" fill="#475569">Principal</text>
  </g>
</svg>